<?xml version="1.0" standalone="no"?>
<!DOCTYPE svg PUBLIC "-//W3C//DTD SVG 20010904//EN"
 "http://www.w3.org/TR/2001/REC-SVG-20010904/DTD/svg10.dtd">
<svg version="1.0" xmlns="http://www.w3.org/2000/svg"
 width="500.000000pt" height="500.000000pt" viewBox="0 0 500.000000 500.000000"
 preserveAspectRatio="xMidYMid meet">

<g transform="translate(0.000000,500.000000) scale(0.100000,-0.100000)"
fill="#000000" stroke="none">
<path d="M2642 3325 c-17 -36 -15 -44 8 -38 21 5 26 28 12 51 -6 9 -12 5 -20
-13z"/>
<path d="M2520 3165 c0 -6 -12 -12 -27 -13 -16 -1 -38 -13 -50 -27 -24 -27
-30 -55 -13 -55 25 0 79 30 90 50 11 21 12 20 33 -12 30 -44 68 -49 102 -12
45 48 35 60 -46 56 -53 -3 -74 -1 -80 9 -5 8 -9 9 -9 4z"/>
<path d="M2748 3162 l-58 -3 20 -39 c11 -22 24 -41 28 -42 23 -4 61 -4 60 1
-1 3 2 23 7 44 4 21 6 39 4 40 -2 1 -30 1 -61 -1z"/>
<path d="M2820 3155 c0 -12 64 -75 76 -75 11 0 10 8 -6 40 -16 30 -26 40 -45
40 -14 0 -25 -2 -25 -5z"/>
<path d="M2935 2937 c-9 -33 -7 -36 22 -28 22 6 22 6 3 31 l-18 25 -7 -28z"/>
<path d="M2365 2930 c-10 -11 -13 -20 -7 -20 6 0 17 -3 26 -6 12 -5 16 0 16
20 0 31 -11 33 -35 6z"/>
<path d="M2663 2938 c-8 -9 -9 -37 -3 -88 5 -41 9 -81 10 -87 0 -7 7 -13 15
-13 12 0 13 15 8 88 -6 98 -13 121 -30 100z"/>
<path d="M2827 2943 c-4 -3 -7 -14 -7 -24 0 -12 6 -16 20 -12 11 3 20 9 20 13
0 12 -26 30 -33 23z"/>
<path d="M2511 2922 c-7 -13 -8 -22 -2 -22 5 0 16 -3 25 -6 20 -8 21 6 2 31
-13 18 -14 18 -25 -3z"/>
<path d="M2820 2738 c0 -20 -15 -24 -25 -7 -5 7 -13 5 -25 -6 -17 -15 -19 -15
-27 0 -9 15 -11 15 -23 1 -9 -12 -16 -13 -25 -6 -9 8 -15 8 -20 0 -5 -8 -11
-8 -21 1 -12 10 -17 8 -27 -5 -12 -16 -14 -16 -26 -2 -12 15 -15 15 -27 -1
-13 -17 -15 -17 -30 2 -14 19 -16 19 -25 2 -9 -14 -14 -16 -25 -6 -23 19 -24
7 -5 -67 l18 -70 -56 4 c-35 2 -76 14 -111 32 -30 15 -72 33 -92 38 -36 10
-38 9 -38 -14 0 -14 -14 -38 -32 -57 -17 -18 -29 -24 -25 -14 5 13 1 17 -18
17 -18 0 -23 -4 -19 -15 4 -8 11 -15 18 -15 6 0 4 -4 -4 -10 -9 -5 -19 -5 -27
1 -17 15 -37 1 -24 -15 11 -13 5 -26 -11 -26 -5 0 -6 5 -3 10 3 6 -3 10 -15
10 -16 0 -20 -4 -15 -19 3 -12 0 -21 -10 -25 -9 -3 -15 0 -15 9 0 19 -14 19
-29 1 -9 -11 -9 -15 0 -18 7 -2 6 -8 -5 -17 -14 -11 -16 -11 -16 3 0 9 -7 16
-15 16 -8 0 -15 -9 -15 -20 0 -20 -11 -26 -23 -13 -4 3 -2 12 4 20 15 18 1 17
-17 -1 -8 -8 -13 -21 -12 -27 2 -8 -16 -16 -51 -22 -122 -20 -222 70 -240 216
-7 58 -25 70 -66 43 l-24 -16 24 -87 c40 -151 83 -227 147 -263 68 -39 176
-34 291 15 14 6 17 1 17 -31 0 -22 -9 -54 -21 -73 -19 -31 -19 -34 -3 -52 9
-11 22 -19 29 -19 16 0 49 -37 69 -78 14 -28 15 -36 4 -50 -7 -9 -48 -59 -91
-111 -43 -51 -77 -101 -75 -109 4 -22 65 -62 94 -62 12 0 52 23 88 50 36 28
67 50 69 50 3 0 15 -38 28 -85 26 -94 34 -100 103 -71 36 15 34 11 67 202 l12
71 106 7 c58 3 118 9 133 12 l28 6 -3 -138 -2 -139 39 -3 c70 -6 81 2 114 79
33 80 34 80 66 -18 19 -58 36 -68 96 -58 37 6 40 9 70 83 45 106 80 251 87
359 l6 92 50 -45 c28 -25 68 -54 89 -65 54 -28 128 -24 128 7 0 10 -6 11 -30
3 -35 -13 -89 2 -115 31 -10 11 -22 17 -28 13 -5 -3 -7 -1 -4 4 4 6 -3 19 -14
29 -12 11 -42 47 -66 82 -36 50 -48 60 -59 51 -8 -6 -14 -16 -14 -22 0 -6 7
-2 16 9 15 18 15 18 4 -3 -16 -33 -94 -89 -158 -114 -109 -41 -304 -36 -451
11 -74 23 -111 44 -68 37 15 -2 27 0 27 4 0 5 5 8 11 7 6 -2 20 9 31 24 17 22
19 31 10 56 -9 26 -7 30 20 46 16 10 37 33 45 52 16 32 56 50 50 22 -3 -16 25
-17 30 -2 2 6 -6 14 -18 17 -11 3 -18 10 -14 16 6 10 -7 15 -30 12 -5 -1 -1 6
9 14 17 13 18 15 3 15 -19 0 -21 8 -8 28 6 11 26 11 104 3 53 -6 99 -11 102
-11 3 0 4 -4 1 -9 -4 -5 3 -7 13 -4 11 3 27 1 35 -4 15 -8 14 -11 -4 -31 -22
-23 -26 -42 -9 -42 6 0 13 9 16 19 3 11 12 21 21 23 11 2 21 29 33 93 21 104
24 148 9 125 -8 -13 -11 -12 -24 5 -14 18 -15 18 -16 3z m-760 -868 c6 -11 8
-20 6 -20 -3 0 -10 9 -16 20 -6 11 -8 20 -6 20 3 0 10 -9 16 -20z"/>
<path d="M2154 2638 c-4 -7 -3 -8 4 -4 7 4 12 3 12 -3 0 -6 7 -8 15 -5 8 4 15
10 15 15 0 13 -38 11 -46 -3z"/>
<path d="M2153 2604 c0 -8 9 -14 19 -14 10 0 18 4 18 9 0 5 -8 11 -18 13 -11
3 -19 0 -19 -8z"/>
<path d="M1960 2510 c0 -5 5 -10 10 -10 6 0 10 5 10 10 0 6 -4 10 -10 10 -5 0
-10 -4 -10 -10z"/>
<path d="M1998 2513 c7 -3 16 -2 19 1 4 3 -2 6 -13 5 -11 0 -14 -3 -6 -6z"/>
<path d="M2740 2470 c-12 -7 -12 -12 -3 -21 15 -15 26 -7 21 15 -2 11 -7 13
-18 6z"/>
<path d="M2680 2460 c11 -7 11 -10 2 -10 -7 0 -10 -4 -7 -10 9 -15 35 -12 35
4 0 8 -7 17 -16 20 -24 9 -31 7 -14 -4z"/>
<path d="M2620 2450 c0 -5 7 -10 15 -10 8 0 15 5 15 10 0 6 -7 10 -15 10 -8 0
-15 -4 -15 -10z"/>
<path d="M2975 2411 c-3 -5 -2 -12 3 -15 5 -3 9 1 9 9 0 17 -3 19 -12 6z"/>
<path d="M3446 2378 c-3 -13 -7 -56 -8 -95 -3 -66 -6 -75 -37 -107 -18 -19
-31 -42 -29 -51 6 -31 64 33 72 80 4 22 14 47 22 56 8 9 17 32 20 50 10 60
-29 122 -40 67z"/>
<path d="M2763 2315 c0 -8 4 -12 9 -9 5 3 6 10 3 15 -9 13 -12 11 -12 -6z"/>
<path d="M2495 2239 c-11 -16 -1 -19 13 -3 7 8 8 14 3 14 -5 0 -13 -5 -16 -11z"/>
<path d="M2801 2219 c-18 -6 -31 -12 -29 -14 2 -3 24 1 49 9 49 16 33 20 -20
5z"/>
</g>
</svg>
